<?xml version="1.0" standalone="no"?>
<!DOCTYPE svg PUBLIC "-//W3C//DTD SVG 20010904//EN"
 "http://www.w3.org/TR/2001/REC-SVG-20010904/DTD/svg10.dtd">
<svg version="1.0" xmlns="http://www.w3.org/2000/svg"
 width="700.000000pt" height="700.000000pt" viewBox="0 0 700.000000 700.000000"
 preserveAspectRatio="xMidYMid meet">
<metadata>
Created by potrace 1.11, written by Peter Selinger 2001-2013
</metadata>
<g transform="translate(0.000000,700.000000) scale(0.100000,-0.100000)"
fill="#000000" stroke="none">
<path d="M0 3500 l0 -3500 3500 0 3500 0 0 3500 0 3500 -3500 0 -3500 0 0
-3500z m3176 1630 l0 -170 -311 0 -311 0 0 -627 0 -628 -194 0 -195 0 0 625 0
625 -307 3 -308 2 0 170 0 170 813 0 813 0 0 -170z m844 108 c1 -35 1 -172 0
-305 l0 -243 395 0 395 0 0 305 0 305 195 0 195 0 0 -800 0 -800 -195 0 -195
0 0 328 0 327 -395 0 -395 0 0 -230 c1 -126 1 -274 0 -327 l0 -98 -194 0 -194
0 0 800 0 800 194 0 194 0 0 -62z m555 -1953 c188 -38 382 -141 483 -256 l33
-37 -24 -24 c-14 -12 -70 -67 -125 -122 l-101 -98 -73 74 c-112 114 -205 152
-373 153 -103 0 -114 -2 -170 -30 -78 -39 -109 -82 -102 -145 6 -56 43 -91
118 -114 51 -15 310 -73 374 -83 64 -10 204 -56 270 -88 180 -88 258 -219 251
-425 -2 -81 -7 -105 -32 -160 -94 -203 -322 -317 -649 -325 -218 -6 -406 34
-570 119 -86 46 -108 62 -187 136 l-48 45 76 90 c42 50 96 112 120 139 l42 48
74 -73 c131 -130 291 -190 492 -185 60 2 122 10 154 20 152 49 187 196 62 261
-28 14 -154 47 -230 60 -19 3 -51 10 -70 15 -19 5 -48 11 -65 13 -393 62 -567
211 -568 487 -1 181 69 309 224 410 66 42 197 88 284 99 66 9 282 6 330 -4z
m-2025 -835 l0 -800 -200 0 -200 0 0 800 0 800 200 0 200 0 0 -800z"/>
</g>
</svg>
